<svg version="1.1" xmlns="http://www.w3.org/2000/svg" viewBox="0 0 2078.6707146321082 714.0605316162109">
  <!-- svg-source:excalidraw -->
  <defs>
    <style>
      @font-face {
        font-family: "Virgil";
        src: url("https://excalidraw.com/FG_Virgil.woff2");
      }
      @font-face {
        font-family: "Cascadia";
        src: url("https://excalidraw.com/Cascadia.woff2");
      }
    </style>
  </defs>
  <rect x="0" y="0" width="2078.6707146321082" height="714.0605316162109" fill="#ffffff"></rect><g transform="translate(368.60023937169166 79.03024291992188) rotate(0 96.48486328125 300.6061096191407)"><path d="M-0.020345453172922134 1.9046298898756504 C48.08588227086312 -1.364493807150011, 99.91061203957689 -0.04467924435246462, 194.25616323575377 1.5846546329557896 M0.8012688476592302 0.0485453587025404 C65.55816890443076 -1.0388344515254537, 131.85465216737904 -0.14408761152530114, 192.69877442903817 0.8695656638592482 M192.20775742381812 -0.21229331344366076 C192.43233919733763 228.6607793684493, 192.39202552431823 456.9902256465337, 193.48842773288487 601.0364148870111 M193.2447439558804 0.16459586545825006 C192.04604240068014 191.63462882241308, 192.2400956452709 383.07690222736596, 192.98351990059018 601.4304421894253 M191.73933505639434 600.9838280119003 C122.82413404618546 600.6296663368422, 54.25902687752932 603.2303265417296, 0.7034581862390041 601.84232718125 M192.63035384006798 601.351534722373 C136.5504810274755 602.8912903887489, 77.38384864762229 602.2306363803604, 0.6184394080191851 601.9008837323637 M-0.6227728381752968 601.7445476785304 C-0.10095214651870385 388.7255428684319, 0.5807220955009496 177.9680874357748, 0.6394862160086632 -0.16086704581975939 M0.37875984981656075 601.128929733485 C0.5411886155023944 452.2269177200658, 0.34531723851112234 302.4062770140195, 0.014949429780244827 0.023924922198057176" stroke="#000000" stroke-width="1" fill="none"></path></g><g transform="translate(376.19115123692603 92.19187927246094) rotate(0 90.5 25)"><text x="0" y="18" font-family="Virgil" font-size="20px" fill="#000000" text-anchor="start" style="white-space: pre;" direction="ltr">WITSML Explorer </text><text x="0" y="43" font-family="Virgil" font-size="20px" fill="#000000" text-anchor="start" style="white-space: pre;" direction="ltr"> Web application</text></g><g transform="translate(947.1857292805457 84.84849548339844) rotate(0 162.42431640625 302.06065368652344)"><path d="M-1.177621269252538 -0.3995763705190331 C66.0730640589633 -2.6638033888817088, 133.53299562149078 -1.3895763230996776, 324.2326764773133 1.2475626415836925 M-0.03894780118980221 0.47046898190115904 C101.61648454319331 -0.4492484488658947, 203.95787983783458 -0.7629825775178611, 324.82303338782475 -0.018758793071010933 M325.38172142654656 -0.07951135784387589 C325.3296889669996 135.47602309039064, 325.33131321741155 270.3078255439962, 324.29201409965754 604.3794197544455 M324.60636413022877 -0.15156191512942316 C325.07052175347576 192.31631838553398, 325.0605287963606 384.3634108749181, 324.9350034229457 604.5170441992581 M323.844427484203 602.9794010463978 C209.59029371251088 603.0922402386881, 95.85164927322008 602.9237897257057, 0.056609040381022095 605.168667831927 M324.41882294760467 604.7557682677716 C218.60075835491506 604.2568620635313, 113.72498539497187 603.8009304428447, 0.6131157088518426 604.1291306884709 M-0.6391353353857995 603.6195329651237 C-2.7495525881295237 433.75102863126347, -2.2802189871315988 264.24892902152425, -0.6913396105170251 -0.4543392673134804 M-0.004778075963258743 603.878802550584 C-0.9579795936678697 438.98929082430624, -0.5764121870135117 273.1097041773741, -0.293645191937685 -0.1470600239932537" stroke="#000000" stroke-width="1" fill="none"></path></g><g transform="translate(1871.0344841633582 90.23735046386719) rotate(0 66 12.5)"><text x="0" y="17" font-family="Virgil" font-size="20px" fill="#000000" text-anchor="start" style="white-space: pre;" direction="ltr">Witsml server</text></g><g><g transform="translate(564.9614969909194 96.7427412127962) rotate(0 190.06270726347964 0.938648460573603)"><path d="M0.3546859167516232 -0.5561124823987483 C63.8461280109459 -0.0789331178643104, 317.6810962120562 1.9745047277322425, 381.0436572332524 2.4334094035459772 M-0.9182427062932402 1.76632451900281 C62.397621877007694 1.9414755508865864, 316.6472362467672 0.9801202618534128, 380.04015188788367 0.7068831082360907" stroke="#000000" stroke-width="1" fill="none"></path></g><g transform="translate(564.9614969909194 96.7427412127962) rotate(0 190.06270726347964 0.938648460573603)"><path d="M350.9626611175379 10.90104936012892 C361.8520042724199 6.768664931090626, 370.1265757013663 5.433295755437705, 378.83138816555334 0.47324250078965857 M351.61662030801085 10.165132680403868 C362.90118528552284 7.145249906698057, 374.0265050014924 3.655606188419732, 379.80316355389846 1.0430133081900044" stroke="#000000" stroke-width="1" fill="none"></path></g><g transform="translate(564.9614969909194 96.7427412127962) rotate(0 190.06270726347964 0.938648460573603)"><path d="M350.8828040398698 -9.620003859259828 C361.72325975986456 -7.433842036496602, 370.02242054504126 -2.45042892550799, 378.83138816555334 0.47324250078965857 M351.5367632303428 -10.35592053898488 C362.81199124205665 -5.23458126570203, 373.9689912108498 -0.5832790192573842, 379.80316355389846 1.0430133081900044" stroke="#000000" stroke-width="1" fill="none"></path></g></g><g transform="translate(694.7971387857544 10) rotate(0 67.5 38)"><text x="0" y="17.333333333333332" font-family="Virgil" font-size="20px" fill="#000000" text-anchor="start" style="white-space: pre;" direction="ltr">api/wells/</text><text x="0" y="42.666666666666664" font-family="Virgil" font-size="20px" fill="#000000" text-anchor="start" style="white-space: pre;" direction="ltr">api/wellbores/</text><text x="0" y="68" font-family="Virgil" font-size="20px" fill="#000000" text-anchor="start" style="white-space: pre;" direction="ltr">api/logs/</text></g><g><g transform="translate(1273.0042107258582 91.6363525390625) rotate(0 256.2932790614665 -1.731576845794919)"><path d="M-0.8453348658978939 -0.35931175723671915 C84.81830282782515 -0.9725823499262334, 427.8663639682034 -2.686812338978052, 513.4318929888308 -3.103841934353113 M0.9117256001662462 -1.5935543751250953 C86.50590072006297 -2.15472613777034, 427.61833081146386 -2.105321313692257, 512.7264848990272 -2.177744840634987" stroke="#000000" stroke-width="1" fill="none"></path></g><g transform="translate(1273.0042107258582 91.6363525390625) rotate(0 256.2932790614665 -1.731576845794919)"><path d="M483.94090529442013 8.864262639115783 C489.7140316335988 4.9786113412618, 497.2822359735015 4.038805218275927, 511.184976049317 -0.35142920295707913 M484.6690550009179 7.378744993861051 C490.9665426719148 5.464471633311019, 496.387783148093 3.347984475869702, 511.9344313764851 -1.3933314712625" stroke="#000000" stroke-width="1" fill="none"></path></g><g transform="translate(1273.0042107258582 91.6363525390625) rotate(0 256.2932790614665 -1.731576845794919)"><path d="M483.9328057905763 -11.65694436203005 C489.80645524748775 -10.32661754379394, 497.3767182563892 -6.05050260729802, 511.184976049317 -0.35142920295707913 M484.6609554970741 -13.14246200728478 C490.8868843709636 -10.868265072112493, 496.3097780151445 -8.796223716385693, 511.9344313764851 -1.3933314712625" stroke="#000000" stroke-width="1" fill="none"></path></g></g><g transform="translate(1728.9741814289832 47.13636779785156) rotate(0 25 12.5)"><text x="0" y="17" font-family="Virgil" font-size="20px" fill="#000000" text-anchor="start" style="white-space: pre;" direction="ltr">SOAP</text></g><g transform="translate(1360.0042107258582 44.22721862792969) rotate(0 105 12.5)"><text x="0" y="17" font-family="Virgil" font-size="20px" fill="#000000" text-anchor="start" style="white-space: pre;" direction="ltr">WMLS_GetFromStore</text></g><g><g transform="translate(1786.9436638508582 132.36361694335938) rotate(0 -257.26385735813994 2.2162185644451426)"><path d="M0.718055286258459 0.4467229820787906 C-85.05747091149291 1.225061501810948, -428.2313060539464 3.0426208314796286, -514.1743851996958 3.472606537491083 M-0.36410441779531544 -0.36435139766894276 C-86.3601010097408 0.6875889774008346, -429.87784985903346 4.086605477615571, -515.2457700025384 4.796788526559249" stroke="#000000" stroke-width="1" fill="none"></path></g><g transform="translate(1786.9436638508582 132.36361694335938) rotate(0 -257.26385735813994 2.2162185644451426)"><path d="M-486.4067680284297 -6.116224481104515 C-497.48250047168295 -3.6486174380426184, -507.7750252876172 0.9525787124494425, -516.0200187254791 3.0366834568325434 M-487.70678165442405 -5.0739648531513435 C-498.00273203929606 -1.3780630281238784, -509.7786266774273 2.062062278972279, -515.7928960852419 4.473650347301737" stroke="#000000" stroke-width="1" fill="none"></path></g><g transform="translate(1786.9436638508582 132.36361694335938) rotate(0 -257.26385735813994 2.2162185644451426)"><path d="M-486.2165600873153 14.40410259535742 C-497.1521808986466 9.898036533591032, -507.5093569497381 7.524421414108096, -516.0200187254791 3.0366834568325434 M-487.51657371330964 15.446362223310592 C-498.0913773572195 10.966434998647332, -509.94305254356505 6.231078113576641, -515.7928960852419 4.473650347301737" stroke="#000000" stroke-width="1" fill="none"></path></g></g><g><g transform="translate(942.3378288899207 183.75753784179688) rotate(0 -189.95962309215787 1.1001975587497554)"><path d="M-0.03720291629433636 -0.621972443908453 C-63.13330951665871 -0.5105074134431978, -315.87765062625374 0.8924762025660773, -379.3372818543037 1.3066382239981293 M-1.5158731766883284 1.6658880777005107 C-64.63623086048634 1.9133046835046064, -316.4809052211404 3.0899264278541256, -379.8820432680213 2.7684366596805603" stroke="#000000" stroke-width="1" fill="none"></path></g><g transform="translate(942.3378288899207 183.75753784179688) rotate(0 -189.95962309215787 1.1001975587497554)"><path d="M-352.7330962669356 -6.226206301736925 C-358.5510212420827 -6.233279837267846, -364.2928279862472 -3.5953198432171316, -381.65626588412755 3.2685345938372166 M-350.8476984992875 -8.190564160260651 C-360.23885810469324 -4.224190107908647, -370.0981234742247 -1.9412226302409348, -380.441968315702 2.6264600628929884" stroke="#000000" stroke-width="1" fill="none"></path></g><g transform="translate(942.3378288899207 183.75753784179688) rotate(0 -189.95962309215787 1.1001975587497554)"><path d="M-352.7226817623467 14.29499965512471 C-358.65214937137495 9.432335796718457, -364.39642032423063 7.214708696643358, -381.65626588412755 3.2685345938372166 M-350.8372839946986 12.330641796600984 C-360.2157144943705 9.907246729696151, -370.07822261761254 5.800547162271951, -380.441968315702 2.6264600628929884" stroke="#000000" stroke-width="1" fill="none"></path></g></g><g transform="translate(21.64059378249891 162.00001525878906) rotate(0 39.27275085449219 37.81819152832031)"><path d="M56.857087639071366 2.6410110018136166 C63.839741925416085 5.2369459994826535, 69.8705864599211 13.263020836461294, 73.55173584263991 19.82929182766657 C77.23288522535873 26.395562818871845, 79.83170245694922 34.6471797862773, 78.94398393538422 42.03863694904527 C78.05626541381923 49.43009411181324, 73.6261331873501 58.75334323204164, 68.22542471324999 64.17803480427439 C62.82471623914988 69.60272637650714, 54.34000942761917 73.41909768233286, 46.539733090783535 74.58678638244177 C38.7394567539479 75.75447508255068, 28.582529394165686 74.60382999356867, 21.423766692236168 71.18416700492784 C14.26500399030665 67.76450401628702, 6.939823015721153 60.61264241766263, 3.5871568792064252 54.06880845059679 C0.234490742691698 47.524974483530954, -0.07268440549877409 39.19642574569859, 1.3077698731478051 31.921163202532806 C2.688224151794384 24.64590065936702, 6.576811315891533 15.798166681786185, 11.869882551085901 10.417233191602072 C17.16295378628027 5.03629970141796, 24.75489198963441 0.46890573715790274, 33.066197284314015 -0.36443773857187267 C41.37750257899362 -1.197781214301648, 56.371374863483496 3.8481485452183035, 61.73771431916353 5.41717233722342 C67.10405377484356 6.986196129228536, 65.83757073241375 8.342020410999126, 65.26423401839423 9.049705013458823 M51.185594626774275 2.9537434522227883 C58.2037335614198 4.599469978181806, 64.9266186826119 10.10490105804745, 69.55427736704948 16.09960573244981 C74.18193605148706 22.09431040685217, 78.69128178129986 31.559407480275013, 78.95154673339977 38.92197149863696 C79.21181168549967 46.2845355169989, 76.04006749964567 54.50868690267252, 71.11586707964892 60.274989842621466 C66.19166665965217 66.04129278257041, 56.917969644369336 71.23067653208267, 49.40634421341929 73.51978913833062 C41.89471878246924 75.80890174457858, 33.3630588052171 76.5543291572507, 26.046114493948615 74.00966548010916 C18.72917018268013 71.46500180296762, 9.813066780116891 64.59660033941937, 5.504678345808372 58.25180707548134 C1.1962899114998526 51.90701381154331, -0.20906735131758403 43.001531006238636, 0.1957838880974947 35.940905896481006 C0.6006351275125734 28.880280786723375, 3.4170361393345603 21.430326580500036, 7.933785782298845 15.888056416935555 C12.45053542526313 10.345786253371074, 19.942377693561344 5.051282726377652, 27.2962817458832 2.687284915094118 C34.65018579820506 0.32328710381058334, 48.20886373742019 1.643765334544381, 52.05721009622998 1.7040695492343474 C55.90555645503977 1.7643737639243138, 50.65652046287148 2.507264966965675, 50.38635989874197 3.0491102032339157" stroke="#000000" stroke-width="1" fill="none"></path></g><g><g transform="translate(59.458800569608286 239.57579040527344) rotate(0 1.003439140873958 47.972654523784286)"><path d="M-0.9096501924097538 0.6755621887743473 C-0.6326790350178877 16.256084749847652, 0.26221242571870496 78.78492235913873, 0.801806416362524 94.63222882524133 M0.8136447272356602 -0.015371607458218861 C1.5183076455847675 16.244144120598214, 2.7577710409617673 80.32483875700272, 2.9165284741576762 95.9606806550268" stroke="#000000" stroke-width="1" fill="none"></path></g></g><g><g transform="translate(55.580016389920786 336.5454559326172) rotate(0 -17.758131089252423 19.57724097501952)"><path d="M0.8287704370915889 -0.022231151908636004 C-4.84320504044493 6.507979621241491, -29.351358725378912 33.65540192698439, -35.22902191653848 40.23398840203881 M-0.19526381277479232 -1.0795064519997686 C-5.948502493038153 5.604645493809755, -30.551714866195496 31.414128569647048, -36.34503261559643 38.3615341756586" stroke="#000000" stroke-width="1" fill="none"></path></g></g><g><g transform="translate(60.428466096952036 332.6666717529297) rotate(0 17.50300274366979 20.955669176406218)"><path d="M0.5793862245976924 0.3524475552141666 C6.133948885858992 7.353412463380953, 27.693840456311598 34.50638243712018, 33.18675837269985 41.45386757844126 M-0.5755747368279844 -0.5081214236374945 C5.390415227687917 6.6501988875353675, 30.04600380144548 35.153215394918796, 35.58158022416756 42.41945977644993" stroke="#000000" stroke-width="1" fill="none"></path></g></g><g><g transform="translate(22.61032034499891 274.48487854003906) rotate(0 36.86961427591742 -1.2927686359733457)"><path d="M-0.836476781219244 0.029293765872716815 C11.487415867423021 -0.563157438610991, 61.883783662195015 -1.951311260337631, 74.57570533305407 -2.6148310378193855 M0.9252341793011873 -1.0009309523832053 C13.074220051694043 -1.458378492075329, 61.484505576022606 -0.6238088890692837, 73.85833040143365 -1.0001552877854554" stroke="#000000" stroke-width="1" fill="none"></path></g></g><g><g transform="translate(119.58004690749891 186.24240112304688) rotate(0 116.96315915446263 -38.44241467937826)"><path d="M0.395092000812292 1.0859712101519106 C39.66932624007264 -12.044963544855515, 195.90580146138865 -64.71714776580532, 234.78294173702596 -77.97080056890846 M-0.8566234281007201 0.6105021501425654 C38.34523005472186 -12.421926612869525, 194.4160661434786 -63.61067860376399, 233.8959460259136 -76.64077167532406" stroke="#000000" stroke-width="1" fill="none"></path></g><g transform="translate(119.58004690749891 186.24240112304688) rotate(0 116.96315915446263 -38.44241467937826)"><path d="M212.13284770840238 -57.89133581411266 C214.91617403582433 -64.07702055209711, 219.51860572212192 -66.00375332931655, 233.1146699153539 -77.61990450269542 M209.59538360194693 -57.82121852491223 C217.54830522453608 -64.40645933584241, 225.84308760231812 -69.33419423193898, 233.65703448846006 -77.1395960947778" stroke="#000000" stroke-width="1" fill="none"></path></g><g transform="translate(119.58004690749891 186.24240112304688) rotate(0 116.96315915446263 -38.44241467937826)"><path d="M205.72056662210622 -77.38499256845631 C210.09907719289777 -79.1447398967011, 216.16432989993916 -76.62442325614624, 233.1146699153539 -77.61990450269542 M203.18310251565077 -77.31487527925589 C213.30574011705735 -77.78299773746204, 223.61375110621503 -76.59041647928836, 233.65703448846006 -77.1395960947778" stroke="#000000" stroke-width="1" fill="none"></path></g></g><g transform="translate(155.6558220539833 100.04544067382812) rotate(0 41.5 12.5)"><text x="0" y="17" font-family="Virgil" font-size="20px" fill="#000000" text-anchor="start" style="white-space: pre;" direction="ltr">Navigate</text></g><g transform="translate(1349.2466423664832 103.92424011230469) rotate(0 61 12.5)"><text x="0" y="17" font-family="Virgil" font-size="20px" fill="#000000" text-anchor="start" style="white-space: pre;" direction="ltr">Query result</text></g><g transform="translate(683.5953362141395 157.25758361816406) rotate(0 59.5 12.5)"><text x="0" y="17" font-family="Virgil" font-size="20px" fill="#000000" text-anchor="start" style="white-space: pre;" direction="ltr">Datamodels</text></g><g><g transform="translate(42.97396780593641 191.09088134765625) rotate(0 10.617251819330264 -5.450717216438051)"><path d="M-0.9584650374948978 1.1341750837862492 C1.1906575582921506 -0.8412408215304215, 10.958564104884863 -10.198126834879318, 13.510910119861364 -11.691027023643255 C16.063256134837864 -13.183927212407191, 13.04054759964347 -9.631143985440334, 14.355611052364111 -7.823226048797369 C15.670674505084753 -6.015308112154404, 20.25414654240012 -2.140868340184291, 21.40129083618522 -0.8435194037854672 M0.7392020884808153 0.6840130574349312 C3.1958666992839424 -1.1907960067347934, 13.554561096196993 -9.487359206990028, 15.67973611540161 -10.691396300410851 C17.804911134606225 -11.895433393831674, 12.404713443582878 -8.291691186244911, 13.490252203708515 -6.54020950309001 C14.575790963834152 -4.788727819935109, 21.07021650469862 -1.3277182294086864, 22.192968676155434 -0.1825062014814467" stroke="#000000" stroke-width="1" fill="none"></path></g></g><g><g transform="translate(71.09518362624891 192.06060791015625) rotate(0 7.194756228900523 -5.9788530980747225)"><path d="M0.36874716058373447 -1.0058114625513552 C2.036236426979303 -2.667507093896468, 7.131491221735875 -8.784809440126022, 9.2021555878222 -10.564063105732203 C11.272819953908524 -12.343316771338383, 11.778707327196994 -13.379219835748275, 12.792733357101678 -11.68133345618844 C13.806759387006363 -9.983447076628606, 14.834080526977779 -2.2611360805730025, 15.2863117672503 -0.3767448283731938 M-0.8967993094492704 1.0805335742700843 C0.7244648976158351 -0.841000997874265, 6.248274949394787 -10.127491616758828, 8.50342799554579 -12.123669880283996 C10.758581041696793 -14.119848143809165, 11.567359084986771 -12.48021956548405, 12.634118967456743 -10.896536006880924 C13.700878849926715 -9.312852448277797, 14.146126451296732 -4.492323280327643, 14.903987290365622 -2.6215685286652297" stroke="#000000" stroke-width="1" fill="none"></path></g></g><g><g transform="translate(42.97396780593641 211.45452880859375) rotate(0 19.784259852147656 5.5687597330177425)"><path d="M0.8661036707460881 -0.3097094155848026 C1.741313884407282 0.857657859971126, 2.832125319788854 4.979837121814489, 5.434976575523615 7.125138916820288 C8.037827831258376 9.270440711826087, 11.60572692329685 13.334285368770361, 16.483211205154657 12.562101354449988 C21.360695487012464 11.789917340129614, 31.36432277932763 4.656399478763342, 34.699882266670464 2.4920348308980467 C38.0354417540133 0.3276701830327511, 35.66207345103224 0.021519214163224, 36.49656812921167 -0.424086532741785 C37.33106280739109 -0.869692279646794, 39.203643041600785 -0.08591125185290972, 39.706850335747006 -0.18159965053200722 M-0.13833063145168123 -1.5179108041059226 C0.5292532319854947 -0.21209519212755046, 1.643252569042767 6.293285857485609, 4.285751272542402 8.330538710700349 C6.9282499760420375 10.36779156391509, 10.709646503829088 12.056357240425422, 15.71666158954613 10.705606315182521 C20.72367667526317 9.35485538993962, 31.05563944081776 2.052966268705204, 34.32784178684466 0.22603315924294276 C37.60004413287156 -1.6008999502193184, 34.74759073466373 -0.08368261024666326, 35.349875665707515 -0.2559923415910452 C35.9521605967513 -0.4283020729354272, 37.07637695193601 -0.4573254600695025, 37.94155137310736 -0.807825228823349" stroke="#000000" stroke-width="1" fill="none"></path></g></g><g><g transform="translate(32.30728079421766 169.757568359375) rotate(0 -3.909530146908949 -7.277450300669273)"><path d="M-0.33865066543221467 -0.6062710784375668 C-0.952202782779932 -1.3642606837054094, -3.032205527772506 -3.3607262156903746, -4.559676966816187 -5.669263865798712 C-6.0871484058598675 -7.977801515907049, -8.742384356011947 -12.692500029255946, -9.5034792996943 -14.45749697908759 M1.684419005876407 1.6898326600436122 C1.0149700874742122 1.247359354083116, -3.9059291677021735 -1.0645492606516918, -5.356116741830483 -4.053643580889329 C-6.806304315958793 -7.042737901126966, -6.394587683811163 -14.329336225207275, -7.016706438893452 -16.24473326138221" stroke="#000000" stroke-width="1" fill="none"></path></g></g><g><g transform="translate(39.09518362624891 162.96966552734375) rotate(0 -1.572990008437074 -6.053805999881604)"><path d="M1.0283209539949894 -1.1192297078669071 C1.004176614433527 -1.4024610854685307, 1.7791692631940048 0.8562400879959264, 1.0324981190264224 -1.154194913059473 C0.2858269748588401 -3.1646299141148724, -2.8591721874972187 -11.150653522958358, -3.451705911010504 -13.181839714199304 M0.10905072550289341 0.9075707501638681 C-0.17064175535924725 0.6800106475222856, 0.8859652706018338 1.9563136713175726, 0.11740772257558996 -0.22272199119441205 C-0.6511498254506539 -2.4017576537063965, -4.1372316683301085 -10.099852807375914, -4.50229456265457 -12.16664322490804" stroke="#000000" stroke-width="1" fill="none"></path></g></g><g><g transform="translate(53.64065481765516 160.06057739257812) rotate(0 0.0512709128391009 -4.733079488328656)"><path d="M-0.016929390281438916 -1.1985982753336428 C-0.022608306258916966 -2.9417114990452924, -0.5819008849561215 -9.018418091287216, -0.7373486302793026 -10.252692661434413 M-1.4849560495186598 0.7865336847770958 C-1.0416376851964742 -0.8188621938756357, 1.0989822814892978 -7.147090604457384, 1.5874978751968594 -9.00702682162635" stroke="#000000" stroke-width="1" fill="none"></path></g></g><g><g transform="translate(66.24673391921766 161.99996948242188) rotate(0 0.31447348534486963 -6.153458182993347)"><path d="M0.7947162531316281 0.1482549168169498 C0.3864909790456296 -0.9750621420641741, -1.3724988875289759 -5.708482935279608, -1.356636891514063 -7.506060197204351 C-1.34077489549915 -9.303637459129096, 0.46147664214173956 -9.902053318669399, 0.8898882292211057 -10.637208654731513 M-0.2471964433137328 -0.8195151971932502 C-0.942910200888291 -2.259418732340758, -3.087876419260477 -7.557317146575078, -2.5078102778736504 -9.496593160843476 C-1.9277441364868237 -11.435869175111874, 2.6352631984806307 -12.211192284043257, 3.2332004050072283 -12.45517128280364" stroke="#000000" stroke-width="1" fill="none"></path></g></g><g><g transform="translate(73.03460623367079 161.99996948242188) rotate(0 0.6887552760541382 -1.4711199963744832)"><path d="M-1.1577284909784793 -0.7119880221784114 C-0.6142620739837487 -1.144410509119431, 2.0510736209650835 -2.324428592373927, 2.5352390430867673 -2.87517459616065 M0.4353253219183535 1.528614320838824 C0.851547777519251 0.8029313921773187, 0.7915556954996038 -3.754208736534541, 1.3909388280566781 -4.47085431358777" stroke="#000000" stroke-width="1" fill="none"></path></g></g><g><g transform="translate(78.85278250320204 170.72726440429688) rotate(0 2.5915862180292635 -5.0683662869036255)"><path d="M-0.9670331262052059 0.34396494850516324 C0.08094777837395672 -1.3453557031850019, 5.102896807342767 -8.74604071949919, 6.150205562263727 -10.480697522312402 M0.7261357531975956 -0.5210573988687248 C1.6571949202846739 -1.9595685309699427, 4.782846644325182 -6.917459741386896, 5.3764754773210734 -8.845627789152786" stroke="#000000" stroke-width="1" fill="none"></path></g></g><g><g transform="translate(84.67095877273329 170.72726440429688) rotate(0 4.457829448985876 -6.718153805765326)"><path d="M-0.10489092841744418 0.8099943615496159 C1.8041709882517658 -1.1806943200528621, 9.04456568385164 -10.162215902656317, 10.534756293147803 -12.289782788604498 M-1.619097395176068 0.18963745602406545 C0.2857193699137619 -2.1487631138321013, 7.87693695382836 -11.888642856394872, 10.026569669311867 -14.246301973080262" stroke="#000000" stroke-width="1" fill="none"></path></g></g><g><g transform="translate(89.51940847976454 175.57577514648438) rotate(0 10.436138324308956 -10.803053756052265)"><path d="M1.0631951071321966 -0.1089836217463016 C3.5492151555915674 -3.2577301360666757, 12.31066918944319 -15.645365835974616, 15.566792438179254 -19.097250828891994 C18.82291568691532 -22.549135821809372, 19.994583191225928 -20.421784593413275, 20.59993459954858 -20.820293579250574 C21.20528600787123 -21.218802565087874, 19.281745026260616 -21.557291231304408, 19.19890088811517 -21.488304743915798 M0.16223380903713402 -1.2118039685022086 C2.4378132906587178 -4.197152309669181, 11.346494647267585 -14.82469119464668, 14.645834183795378 -17.913148193014784 C17.94517372032317 -21.00160519138289, 19.260194731854522 -19.317106910400714, 19.95827102820389 -19.742545958710835 C20.656347324553256 -20.167985007020956, 18.468181725544856 -20.50138008172624, 18.834291961891577 -20.46578248287551" stroke="#000000" stroke-width="1" fill="none"></path></g></g><g><g transform="translate(25.51943899734266 180.42422485351562) rotate(0 -6.858155121818854 -5.5572654398500845)"><path d="M-0.26080820783972736 0.9269993685185909 C-1.010344189653794 1.1526272438466547, -3.320922829955816 3.4026583733657993, -5.661992981284857 1.1988365314900873 C-8.003063132613898 -1.0049853103856246, -12.807190102587144 -10.040987556924422, -14.307229115813971 -12.29593168273568 C-15.807268129040798 -14.55087580854694, -14.65457518324256 -12.17887049689889, -14.662227060645819 -12.330828223377466 M1.80312875370495 0.36807009165175275 C1.5363097825677443 0.3065203497279437, -0.5852841039467602 1.5696015565066286, -3.3771166204381733 -0.2943490382563323 C-6.168949136929586 -2.1582996330192934, -13.182796711620565 -9.01761220917416, -14.94786634524353 -10.815633476926013 C-16.712935978866494 -12.613654744677866, -13.923163930373267 -10.696283243251964, -13.967534422175959 -11.082476644767448" stroke="#000000" stroke-width="1" fill="none"></path></g></g><g><g transform="translate(90.48913504226454 184.30300903320312) rotate(0 4.5208261585002845 -5.389922496578663)"><path d="M0.7018486239016055 0.534924354404211 C2.0828520911435287 -1.125842525313298, 7.829388624181351 -7.57739271496733, 9.43047189489007 -9.365966448932886 M-0.38881957788951693 -0.22984430487267682 C0.7107053815356144 -2.319662008934344, 6.633778586390738 -9.829526905569558, 8.342519940240308 -11.314769347561523" stroke="#000000" stroke-width="1" fill="none"></path></g></g><g><g transform="translate(111.82247854812391 312.3030090332031) rotate(0 120.27403696093243 3.3172968511050556)"><path d="M-0.08691125884652129 -0.09337578043341632 C40.35776213866969 1.1225675578058372, 201.9401709339271 5.123010761112277, 242.13975232094526 6.302515348130828 M-1.5916783990804106 -1.1880020105000586 C38.72874790136081 0.31631842111392405, 200.28674509549202 6.794363661909778, 241.1170007740613 7.822595712710163" stroke="#000000" stroke-width="1" fill="none"></path></g><g transform="translate(111.82247854812391 312.3030090332031) rotate(0 120.27403696093243 3.3172968511050556)"><path d="M212.44119586552614 16.891314059662022 C219.91925750205763 12.814595980848729, 228.3549659114807 12.990602143032014, 239.67186601138673 9.722466648537656 M212.91177063751155 18.00613256746749 C221.51158126568328 13.62059174771384, 231.93280146867124 10.508354201052011, 240.871313499799 8.252179796788832" stroke="#000000" stroke-width="1" fill="none"></path></g><g transform="translate(111.82247854812391 312.3030090332031) rotate(0 120.27403696093243 3.3172968511050556)"><path d="M213.13194544114157 -3.618265833881056 C220.2634502664392 -2.4455240821353526, 228.52234336618724 2.980442193233298, 239.67186601138673 9.722466648537656 M213.60252021312698 -2.503447326075589 C221.8524412232184 -0.04617467577442769, 232.0432984000139 3.6814745570857266, 240.871313499799 8.252179796788832" stroke="#000000" stroke-width="1" fill="none"></path></g></g><g><g transform="translate(561.7618401203895 322) rotate(0 250.91006893012207 -1.5692150892223822)"><path d="M0.8385625742375848 -0.1459789775311946 C84.31787330371638 -0.4114577006160553, 418.48133783551555 -0.9098487997349782, 502.0004686638713 -1.4193346334155421 M-0.18033080362714826 -1.2682218860741705 C83.02932362620098 -1.8629410466070562, 417.4290556111342 -2.825101911520256, 500.9730303858872 -2.992451200913615" stroke="#000000" stroke-width="1" fill="none"></path></g><g transform="translate(561.7618401203895 322) rotate(0 250.91006893012207 -1.5692150892223822)"><path d="M472.5655251472692 7.088825460416816 C485.6269193667429 2.7450752279478117, 493.7430481948735 0.3546716541886399, 502.4526824293192 -2.7086626949719856 M472.6943088855098 7.608654072401665 C479.83552198278113 4.207834241565301, 486.0021519112096 2.6061621138339612, 501.3748416000511 -3.1633322953246306" stroke="#000000" stroke-width="1" fill="none"></path></g><g transform="translate(561.7618401203895 322) rotate(0 250.91006893012207 -1.5692150892223822)"><path d="M472.5125695123823 -13.432314812155111 C485.62448986339666 -9.696912824245782, 493.76146822649457 -4.007794122514028, 502.4526824293192 -2.7086626949719856 M472.6413532506229 -12.912486200170262 C479.9153853638593 -11.434926719431505, 486.0946054158652 -8.157728212640233, 501.3748416000511 -3.1633322953246306" stroke="#000000" stroke-width="1" fill="none"></path></g></g><g transform="translate(570.2617790852332 37.984832763671875) rotate(0 23.5 12.5)"><text x="0" y="17" font-family="Virgil" font-size="20px" fill="#000000" text-anchor="start" style="white-space: pre;" direction="ltr">GET</text></g><g transform="translate(892.5497429524207 53.5) rotate(0 28 12.5)"><text x="0" y="17" font-family="Virgil" font-size="20px" fill="#000000" text-anchor="start" style="white-space: pre;" direction="ltr">REST</text></g><g transform="translate(135.41332937820204 272.6515197753906) rotate(0 101.5 12.5)"><text x="0" y="17" font-family="Virgil" font-size="20px" fill="#000000" text-anchor="start" style="white-space: pre;" direction="ltr">Add/Update/Delete</text></g><g transform="translate(636.867919221952 327.92425537109375) rotate(0 97.5 12.5)"><text x="0" y="17" font-family="Virgil" font-size="20px" fill="#000000" text-anchor="start" style="white-space: pre;" direction="ltr">Username/password</text></g><g transform="translate(643.5651238117957 103.41917419433594) rotate(0 97.5 12.5)"><text x="0" y="17" font-family="Virgil" font-size="20px" fill="#000000" text-anchor="start" style="white-space: pre;" direction="ltr">Username/password</text></g><g transform="translate(647.6859734211707 288.16668701171875) rotate(0 92.5 12.5)"><text x="0" y="17" font-family="Virgil" font-size="20px" fill="#000000" text-anchor="start" style="white-space: pre;" direction="ltr">api/jobs/&lt;jobType&gt;</text></g><g transform="translate(1063.0951531086707 315.21209716796875) rotate(0 62.060546875 96.48487854003906)"><path d="M-1.1902248226106167 -1.3424122370779514 C38.900392501313036 -0.23204508768867527, 75.9376078782152 -0.7395408486063388, 125.76784938946366 -1.4585274495184422 M0.6061875205487013 -0.7221955936402082 C34.54252741743039 0.31624673526857805, 67.9675739030572 -0.6835883386793284, 123.75775706581771 -0.6250821631401777 M125.3752092756331 1.4105378352105618 C124.01855520757435 70.56089142681411, 125.92802278550862 141.0761093677829, 123.37888056412339 193.5970616303384 M123.3194106798619 -0.04347863607108593 C124.18666673306849 63.034848836141556, 125.86501724128154 128.5453986746872, 124.52639823965728 193.42277732677755 M123.7492714561522 192.73581075295803 C89.28468114982752 195.51197885100734, 54.592128349606355 193.18518529956233, 1.8460251726210117 194.4508646689355 M125.02318674139678 193.90054479427633 C95.97191599522557 194.16699860432524, 67.77592898623698 193.30331389048476, -0.8641269225627184 192.69907805509862 M-1.5137169919908047 192.33683669194576 C0.30929061189629414 132.67946233274048, 0.735443675670403 76.60448161977546, -1.124051745980978 0.8981697522103786 M-0.39655900187790394 192.6701774317771 C1.1345692733455148 140.15563515193887, 0.8622552612948862 85.71650371499614, 0.6029662471264601 -0.2162849586457014" stroke="#000000" stroke-width="1" fill="none"></path></g><g transform="translate(1090.7164299641395 360.89393615722656) rotate(0 32.5 12.5)"><text x="0" y="17" font-family="Virgil" font-size="20px" fill="#000000" text-anchor="start" style="white-space: pre;" direction="ltr">Worker</text></g><g><g transform="translate(1187.2164909992957 337.51513671875) rotate(0 300.10500126853583 0.9435909117246126)"><path d="M-0.8350527070462703 -0.8292218305170536 C99.28993727142613 -0.385822552194198, 500.5698585090538 1.3008327228327592, 601.045055244118 1.774579443782568 M0.9274058924149724 1.3498327631223948 C100.85394115915213 1.9758418692617368, 499.885149549249 2.464633983022844, 600.0093448139262 2.716403653966263" stroke="#000000" stroke-width="1" fill="none"></path></g><g transform="translate(1187.2164909992957 337.51513671875) rotate(0 300.10500126853583 0.9435909117246126)"><path d="M570.4174802072009 12.646216183503395 C579.1407852099027 11.147494242785259, 588.6952949278403 5.9614959119737385, 598.2717534914148 3.445674704508856 M572.3049927662721 12.764955108587866 C578.1808668662596 11.243229574176858, 585.1527785170173 7.627685281962505, 600.5871211248916 2.5567102656979115" stroke="#000000" stroke-width="1" fill="none"></path></g><g transform="translate(1187.2164909992957 337.51513671875) rotate(0 300.10500126853583 0.9435909117246126)"><path d="M570.4556770741789 -7.874956867401701 C579.0151004093308 -2.712916559063421, 588.5572116936204 -1.2378868375087695, 598.2717534914148 3.445674704508856 M572.3431896332501 -7.756217942317229 C578.0559053766564 -4.513768553875286, 585.0189498525102 -3.365444888530843, 600.5871211248916 2.5567102656979115" stroke="#000000" stroke-width="1" fill="none"></path></g></g><g><g transform="translate(1788.4285271321082 503.3333740234375) rotate(0 -302.7540503643454 -0.6411810137331599)"><path d="M0.7775795437395572 0.9421558521687985 C-100.43072591846189 0.6038420262436073, -505.4231137933831 -1.8526598947743573, -606.2856802724302 -2.2245178796350955 M-0.2733299251366408 0.3911837292183189 C-101.21857026646224 0.2493197007446238, -503.446633517143 -0.22324551200183707, -604.2010272150208 -0.8367836680542675" stroke="#000000" stroke-width="1" fill="none"></path></g><g transform="translate(1788.4285271321082 503.3333740234375) rotate(0 -302.7540503643454 -0.6411810137331599)"><path d="M-574.4066185563674 -12.996669058020824 C-587.203524076133 -5.7998159656311685, -596.3792576890069 -1.3206444005680886, -602.5919322935213 -0.21582796613685762 M-575.1529134776315 -11.398813395093793 C-582.2030522799018 -9.404598046032195, -588.6150884097374 -5.99486284466739, -603.3407939696033 -0.5177941210847345" stroke="#000000" stroke-width="1" fill="none"></path></g><g transform="translate(1788.4285271321082 503.3333740234375) rotate(0 -302.7540503643454 -0.6411810137331599)"><path d="M-574.4736599963159 7.524430031237781 C-587.2117822150705 6.915729895944901, -596.3620168816279 3.589782650427834, -602.5919322935213 -0.21582796613685762 M-575.2199549175799 9.122285694164812 C-582.2937785534044 6.85583902710558, -588.6918945765775 6.0046888958418, -603.3407939696033 -0.5177941210847345" stroke="#000000" stroke-width="1" fill="none"></path></g></g><g><g transform="translate(1067.9436638508582 390.8484802246094) rotate(0 -252.0095888680686 0.321193799870116)"><path d="M-0.41193473562598226 -0.5016234017908573 C-84.49350756232937 -0.2683930891255537, -420.3930312099556 0.7662047925094765, -504.5055984519422 1.268014969676733 M1.5726607988309116 -1.810579633070156 C-82.6885516227254 -1.4202324659160028, -421.5569543242423 2.073555057492728, -505.59183853496796 2.4529672328103334" stroke="#000000" stroke-width="1" fill="none"></path></g><g transform="translate(1067.9436638508582 390.8484802246094) rotate(0 -252.0095888680686 0.321193799870116)"><path d="M-478.31759822681806 -8.464877347303156 C-487.00721797263964 -6.401313992900812, -493.3337386095546 -0.8374491888090274, -505.5129017755855 0.8092793848086148 M-478.0915252057489 -7.69407731744421 C-487.85919594378635 -4.916895797805053, -497.64484693966165 -0.7073276303214904, -505.8882438522298 2.671897687735036" stroke="#000000" stroke-width="1" fill="none"></path></g><g transform="translate(1067.9436638508582 390.8484802246094) rotate(0 -252.0095888680686 0.321193799870116)"><path d="M-478.15829838695134 12.055712945055818 C-486.8730291539588 7.990189314783448, -493.24712519924685 7.425513977012359, -505.5129017755855 0.8092793848086148 M-477.9322253658822 12.826512974914765 C-487.8698896293181 7.862693919537627, -497.71562764154555 4.332009206135845, -505.8882438522298 2.671897687735036" stroke="#000000" stroke-width="1" fill="none"></path></g></g><g transform="translate(636.080077425077 368.6514892578125) rotate(0 123.5 12.5)"><text x="0" y="17" font-family="Virgil" font-size="20px" fill="#000000" text-anchor="start" style="white-space: pre;" direction="ltr">Worker accepts 200 OK</text></g><g><g transform="translate(1069.8829949055457 508.1817626953125) rotate(0 -253.78062862702643 2.270021900949075)"><path d="M-0.9814028598368167 0.3025528170168399 C-85.53252287879587 0.9733084815243879, -423.07694085612894 4.31388798331221, -507.59412456527355 5.124254701286555 M0.7042219094093891 -0.5842108993884176 C-83.93365636461415 0.2188145472450801, -423.3429484560434 1.9410325130665051, -508.2654791634623 3.146445531034842" stroke="#000000" stroke-width="1" fill="none"></path></g><g transform="translate(1069.8829949055457 508.1817626953125) rotate(0 -253.78062862702643 2.270021900949075)"><path d="M-479.6641781714329 -6.4897315961359014 C-487.36867980584975 -4.6342795759553175, -495.0573616406312 -3.5660648697641797, -508.48439153024 4.027588806683197 M-479.72541612689884 -6.507079891213583 C-491.97328857787875 -2.719300050843561, -502.1845070661228 0.6439920984956506, -507.34897760973314 3.5929455921147015" stroke="#000000" stroke-width="1" fill="none"></path></g><g transform="translate(1069.8829949055457 508.1817626953125) rotate(0 -253.78062862702643 2.270021900949075)"><path d="M-479.47900886368456 14.030641566 C-487.4226820787346 10.219937806274496, -495.1624798322296 5.623511113294365, -508.48439153024 4.027588806683197 M-479.54024681915047 14.013293270922318 C-491.7150910066165 9.932793145461243, -501.99729469358516 5.429539890864628, -507.34897760973314 3.5929455921147015" stroke="#000000" stroke-width="1" fill="none"></path></g></g><g transform="translate(619.5194898599736 452.2592027452247) rotate(0 142 25)"><text x="0" y="18" font-family="Virgil" font-size="20px" fill="#000000" text-anchor="start" style="white-space: pre;" direction="ltr">Work finished, trigger </text><text x="0" y="43" font-family="Virgil" font-size="20px" fill="#000000" text-anchor="start" style="white-space: pre;" direction="ltr">user notification and refresh</text></g><g transform="translate(712.973876253202 512.1666870117188) rotate(0 34 12.5)"><text x="0" y="17" font-family="Virgil" font-size="20px" fill="#000000" text-anchor="start" style="white-space: pre;" direction="ltr">SignalR</text></g><g transform="translate(1404.7468865071082 232.5706787109375) rotate(0 120.5 50.5)"><text x="0" y="17.25" font-family="Virgil" font-size="20px" fill="#000000" text-anchor="start" style="white-space: pre;" direction="ltr">WMLS_GetFromStore</text><text x="0" y="42.5" font-family="Virgil" font-size="20px" fill="#000000" text-anchor="start" style="white-space: pre;" direction="ltr">WMLS_AddToStore</text><text x="0" y="67.75" font-family="Virgil" font-size="20px" fill="#000000" text-anchor="start" style="white-space: pre;" direction="ltr">WMLS_UpdateInStore</text><text x="0" y="93" font-family="Virgil" font-size="20px" fill="#000000" text-anchor="start" style="white-space: pre;" direction="ltr">WMLS_DeleteFromStore</text></g><g><g transform="translate(368.79211355788954 511.09088134765625) rotate(0 -117.08305579253474 -71.8491794966161)"><path d="M-0.872014794498682 0.5738547541201116 C-39.90095870668689 -23.54613156542182, -195.13906666611632 -120.12904551252723, -233.95409379974006 -144.27221374735237 M0.8710387090500444 -0.1704754453059285 C-38.357640676830584 -24.191512371515856, -195.79828868968724 -119.26534530392848, -235.0371502941195 -143.13225393614732" stroke="#000000" stroke-width="1" fill="none"></path></g><g transform="translate(368.79211355788954 511.09088134765625) rotate(0 -117.08305579253474 -71.8491794966161)"><path d="M-204.65314022684834 -137.7284326732107 C-216.25984597054568 -139.47886341677153, -225.64814023711696 -142.452885227959, -234.77421442099848 -142.9547225112375 M-205.06356579484782 -137.3810255762138 C-216.35441722529123 -139.18600813666148, -228.29980735543853 -140.99941454398265, -234.92374098167755 -142.75133305101656" stroke="#000000" stroke-width="1" fill="none"></path></g><g transform="translate(368.79211355788954 511.09088134765625) rotate(0 -117.08305579253474 -71.8491794966161)"><path d="M-215.2868996410323 -120.17727421836526 C-223.57438769390845 -127.43692104642152, -229.57798321276854 -135.99743223819033, -234.77421442099848 -142.9547225112375 M-215.6973252090318 -119.82986712136835 C-222.81663305724928 -128.32262582421632, -230.71087357754257 -136.82250744292816, -234.92374098167755 -142.75133305101656" stroke="#000000" stroke-width="1" fill="none"></path></g></g><g transform="translate(194.5194695149208 420.1513671875) rotate(0 87 25)"><text x="0" y="18" font-family="Virgil" font-size="20px" fill="#000000" text-anchor="start" style="white-space: pre;" direction="ltr">Push notification </text><text x="0" y="43" font-family="Virgil" font-size="20px" fill="#000000" text-anchor="start" style="white-space: pre;" direction="ltr">to user</text></g><g transform="translate(1472.4285271321082 467.2979736328125) rotate(0 61 12.5)"><text x="0" y="17" font-family="Virgil" font-size="20px" fill="#000000" text-anchor="start" style="white-space: pre;" direction="ltr">Query result</text></g><g transform="translate(1782.6099236164832 80.54542541503906) rotate(0 143.0303955078125 311.75755310058594)"><path d="M-1.4493231160137057 0.3954999395099635 C61.37133473060349 -2.269395858208199, 123.91000597805767 -0.653938750900216, 285.97138899086667 -0.29014646419797896 M-0.08354378199064313 -0.4483345279527488 C70.07156759211652 0.3071238000440739, 140.12024461624844 0.27888570216153175, 285.58060874887576 -0.377208881831018 M286.5774614110589 -0.6033420100808145 C284.88946072407504 175.15609531518598, 284.92208320446747 351.23296275519886, 286.47293627411125 623.7788785919547 M285.83747324869034 0.22807229831814768 C286.33230550175557 167.8168611488989, 286.6540912616814 336.05842175851285, 285.9278549425304 623.3579218514263 M286.4214140634178 624.9569319099907 C218.64770459943819 623.9363395200364, 149.56157176714208 623.0598640437858, -0.2948876271919538 623.822922455867 M285.76196256369167 624.2403954957359 C192.69296069952406 622.1429941541472, 100.24403874088674 623.0474263506114, 0.74015078993708 623.5485316826716 M0.1399328961968422 623.0159385189414 C0.6693379570529143 389.9238912484573, -0.18902161821869223 156.11128581146932, -0.7031634077429771 -0.0008551612496376038 M-0.02509870603680611 623.1754670985043 C1.5455997692052224 411.8036981666377, 2.192197846025596 199.70447638442923, -0.30246756151318555 0.38833819702267647" stroke="#000000" stroke-width="1" fill="none"></path></g><g><g transform="translate(1273.3377068196082 582.8358993530273) rotate(0 256.60228636438956 -1.5783565162634545)"><path d="M0.02366015687584877 -0.3005674459040165 C85.41602786158522 -0.5874777175486088, 426.97395914966864 -0.7598078347742558, 512.2785453297198 -1.148694882541895 M-1.4230569901037962 -1.5039693003427237 C84.36743139654709 -2.1774415733944625, 428.6974134631983 -2.8266394447814673, 514.627629718883 -2.856145586622879" stroke="#000000" stroke-width="1" fill="none"></path></g><g transform="translate(1273.3377068196082 582.8358993530273) rotate(0 256.60228636438956 -1.5783565162634545)"><path d="M485.9496317517519 6.290124763313934 C495.99473477401625 2.547748443871331, 501.79486726714254 1.1222032189057787, 514.5736345305573 -1.2578812537621706 M486.0942398861557 6.669380570341155 C497.7402012252099 2.8264495268684264, 507.37954052419497 -0.8036484532638895, 514.3645807105582 -2.4948264302592724" stroke="#000000" stroke-width="1" fill="none"></path></g><g transform="translate(1273.3377068196082 582.8358993530273) rotate(0 256.60228636438956 -1.5783565162634545)"><path d="M485.92222921949246 -14.231065540541849 C496.0733290215968 -11.94647781318174, 501.88150949938324 -7.3450535884428145, 514.5736345305573 -1.2578812537621706 M486.0668373538963 -13.851809733514628 C497.92109250819385 -9.673520920084083, 507.5711429247713 -5.282284214811957, 514.3645807105582 -2.4948264302592724" stroke="#000000" stroke-width="1" fill="none"></path></g></g><g transform="translate(1729.3076775227332 538.3359146118164) rotate(0 25 12.5)"><text x="0" y="17" font-family="Virgil" font-size="20px" fill="#000000" text-anchor="start" style="white-space: pre;" direction="ltr">SOAP</text></g><g transform="translate(1360.3377068196082 535.4267654418945) rotate(0 105 12.5)"><text x="0" y="17" font-family="Virgil" font-size="20px" fill="#000000" text-anchor="start" style="white-space: pre;" direction="ltr">WMLS_GetFromStore</text></g><g><g transform="translate(1787.2771599446082 623.5631637573242) rotate(0 -256.9216115213932 2.0274765547783886)"><path d="M0.7907124660909175 -1.1185493253171443 C-84.93151554440458 -0.3834137779970963, -428.840175058196 2.726916700353225, -514.633935508877 3.71963205114007 M-0.25330221855081625 0.9086083335522561 C-85.55801907493111 1.8946641756935665, -426.53637509051396 4.825156677647803, -512.2865842240396 5.173502434873953" stroke="#000000" stroke-width="1" fill="none"></path></g><g transform="translate(1787.2771599446082 623.5631637573242) rotate(0 -256.9216115213932 2.0274765547783886)"><path d="M-486.02959865170567 -6.433665479404693 C-492.2228016456794 -2.271718991947086, -498.09129346512657 2.4730603296157847, -510.36093863793644 6.011589222485199 M-484.637538038446 -6.275802821723586 C-491.75730554983625 -2.671265919313256, -498.75338676111363 -0.4086729149118513, -513.2127168713603 5.824483620831742" stroke="#000000" stroke-width="1" fill="none"></path></g><g transform="translate(1787.2771599446082 623.5631637573242) rotate(0 -256.9216115213932 2.0274765547783886)"><path d="M-485.89178178412385 14.087080337861549 C-492.00468161311824 12.60770020596134, -497.91106655418236 11.710244795539442, -510.36093863793644 6.011589222485199 M-484.4997211708642 14.244942995542656 C-491.4973563561896 12.425004198518348, -498.52987169443725 9.26260480720909, -513.2127168713603 5.824483620831742" stroke="#000000" stroke-width="1" fill="none"></path></g></g><g transform="translate(1349.5801384602332 595.1237869262695) rotate(0 61 12.5)"><text x="0" y="17" font-family="Virgil" font-size="20px" fill="#000000" text-anchor="start" style="white-space: pre;" direction="ltr">Query result</text></g><g><g transform="translate(565.7261320281041 578.8153854537904) rotate(0 189.9662394194222 -0.9274326008850835)"><path d="M0.8818159483373165 -0.26235780939459796 C64.03412874088812 -0.6988658877681169, 317.00105324616675 -1.5953407776705792, 380.0468482469695 -1.7521743260148015 M-0.11436940812505791 -1.4456996046658606 C62.826828077511884 -1.7391877216226583, 316.3226961604973 0.15977687408441094, 379.375048707856 -0.12772686977973535" stroke="#000000" stroke-width="1" fill="none"></path></g><g transform="translate(565.7261320281041 578.8153854537904) rotate(0 189.9662394194222 -0.9274326008850835)"><path d="M350.7247076584855 10.94837309879034 C362.4921948026411 5.234597611595845, 374.53452801570535 2.31158384904081, 378.6585463952852 1.5891430246354048 M351.30370780927035 9.864651634290508 C358.18239482800345 7.412547901820361, 365.31498668499376 5.534342295398758, 379.6408348508758 -0.3648171612351234" stroke="#000000" stroke-width="1" fill="none"></path></g><g transform="translate(565.7261320281041 578.8153854537904) rotate(0 189.9662394194222 -0.9274326008850835)"><path d="M350.7694404320422 -9.572786745741075 C362.6675281883552 -7.192394805654393, 374.6922181562539 -2.0215698582043835, 378.6585463952852 1.5891430246354048 M351.34844058282704 -10.656508210240906 C358.27206172620464 -7.950838573410276, 365.3934107312418 -4.671385852479936, 379.6408348508758 -0.3648171612351234" stroke="#000000" stroke-width="1" fill="none"></path></g></g><g><g transform="translate(943.1024639271054 665.830182082791) rotate(0 -190.54126302991625 0.6862179747009236)"><path d="M0.5261827133595944 0.16575658097863188 C-63.03237353300087 0.5703597340024809, -317.0802043276545 2.02275588663285, -380.4695215298255 2.1652611087484956 M-0.6567100914660842 -0.7928251593466848 C-64.48230348540814 -0.7083729166407338, -318.31479961577656 -0.06639705394404632, -381.6087087731921 0.4178365589248687" stroke="#000000" stroke-width="1" fill="none"></path></g><g transform="translate(943.1024639271054 665.830182082791) rotate(0 -190.54126302991625 0.6862179747009236)"><path d="M-353.18997748514965 -10.581333227065459 C-362.80878746256934 -5.476873183376826, -375.2270238130828 -0.3714813899887188, -382.58203545996184 0.9653394975828677 M-353.5087903565015 -9.997446251642957 C-362.61886280783665 -5.985474118145495, -371.51871813166144 -3.499852948465432, -382.1941676162296 -0.265975703565523" stroke="#000000" stroke-width="1" fill="none"></path></g><g transform="translate(943.1024639271054 665.830182082791) rotate(0 -190.54126302991625 0.6862179747009236)"><path d="M-353.09397781763505 9.939650824623607 C-362.70377686160975 7.38025901315538, -375.1578676155317 4.821378006673838, -382.58203545996184 0.9653394975828677 M-353.4127906889869 10.523537800046109 C-362.58321777632983 7.8512658197753, -371.5143418812675 3.6528413552642203, -382.1941676162296 -0.265975703565523" stroke="#000000" stroke-width="1" fill="none"></path></g></g><g transform="translate(684.3599712513242 639.3302278591582) rotate(0 59.5 12.5)"><text x="0" y="17" font-family="Virgil" font-size="20px" fill="#000000" text-anchor="start" style="white-space: pre;" direction="ltr">Datamodels</text></g><g transform="translate(571.9962017200742 545.2695131374785) rotate(0 23.5 12.5)"><text x="0" y="17" font-family="Virgil" font-size="20px" fill="#000000" text-anchor="start" style="white-space: pre;" direction="ltr">GET</text></g><g transform="translate(870.0417949817929 544.2999391628691) rotate(0 28 12.5)"><text x="0" y="17" font-family="Virgil" font-size="20px" fill="#000000" text-anchor="start" style="white-space: pre;" direction="ltr">REST</text></g><g transform="translate(644.3297588489804 585.4918184353301) rotate(0 97.5 12.5)"><text x="0" y="17" font-family="Virgil" font-size="20px" fill="#000000" text-anchor="start" style="white-space: pre;" direction="ltr">Username/password</text></g><g transform="translate(1014.3220818196082 92.31314086914062) rotate(0 85.5 25)"><text x="0" y="18" font-family="Virgil" font-size="20px" fill="#000000" text-anchor="start" style="white-space: pre;" direction="ltr">WITSML Explorer</text><text x="0" y="43" font-family="Virgil" font-size="20px" fill="#000000" text-anchor="start" style="white-space: pre;" direction="ltr">    Web API</text></g><g transform="translate(570.9134514485145 287.9342956542969) rotate(0 29 12.5)"><text x="0" y="17" font-family="Virgil" font-size="20px" fill="#000000" text-anchor="start" style="white-space: pre;" direction="ltr">POST</text></g></svg>