<svg width="16" height="16" viewBox="0 0 16 16" fill="none" xmlns="http://www.w3.org/2000/svg">
  <path fill-rule="evenodd" clip-rule="evenodd" d="M12.6667 1.99999H9.88C9.6 1.22666 8.86667 0.666656 8 0.666656C7.13333 0.666656 6.4 1.22666 6.12 1.99999H3.33333C2.6 1.99999 2 2.59999 2 3.33332V14C2 14.7333 2.6 15.3333 3.33333 15.3333H12.6667C13.4 15.3333 14 14.7333 14 14V3.33332C14 2.59999 13.4 1.99999 12.6667 1.99999ZM8 1.99999C8.36667 1.99999 8.66667 2.29999 8.66667 2.66666C8.66667 3.03332 8.36667 3.33332 8 3.33332C7.63333 3.33332 7.33333 3.03332 7.33333 2.66666C7.33333 2.29999 7.63333 1.99999 8 1.99999ZM3.33333 3.33332V14H12.6667V3.33332H11.3333V5.33332H4.66667V3.33332H3.33333Z" fill="#007079"/>
</svg>
