<svg width="16" height="16" viewBox="0 0 16 16" fill="none" xmlns="http://www.w3.org/2000/svg">
  <path fill-rule="evenodd" clip-rule="evenodd" d="M13.0015 8C13.0015 8.22666 12.9815 8.43999 12.9548 8.65333L14.3615 9.75333C14.4881 9.85333 14.5215 10.0333 14.4415 10.18L13.1081 12.4867C13.0481 12.5933 12.9348 12.6533 12.8215 12.6533C12.7815 12.6533 12.7415 12.6467 12.7015 12.6333L11.0415 11.9667C10.6948 12.2267 10.3215 12.4533 9.91481 12.62L9.66148 14.3867C9.64148 14.5467 9.50148 14.6667 9.33481 14.6667H6.66815C6.50148 14.6667 6.36148 14.5467 6.34148 14.3867L6.08815 12.62C5.68148 12.4533 5.30815 12.2333 4.96148 11.9667L3.30148 12.6333C3.26815 12.6467 3.22815 12.6533 3.18815 12.6533C3.06815 12.6533 2.95481 12.5933 2.89481 12.4867L1.56148 10.18C1.48148 10.0333 1.51481 9.85333 1.64148 9.75333L3.04815 8.65333C3.02148 8.43999 3.00148 8.22 3.00148 8C3.00148 7.77999 3.02148 7.56 3.04815 7.34666L1.64148 6.24666C1.51481 6.14666 1.47481 5.96666 1.56148 5.81999L2.89481 3.51333C2.95481 3.40666 3.06815 3.34666 3.18148 3.34666C3.22148 3.34666 3.26148 3.35333 3.30148 3.36666L4.96148 4.03333C5.30815 3.77333 5.68148 3.54666 6.08815 3.37999L6.34148 1.61333C6.36148 1.45333 6.50148 1.33333 6.66815 1.33333H9.33481C9.50148 1.33333 9.64148 1.45333 9.66148 1.61333L9.91481 3.37999C10.3215 3.54666 10.6948 3.76666 11.0415 4.03333L12.7015 3.36666C12.7348 3.35333 12.7748 3.34666 12.8148 3.34666C12.9348 3.34666 13.0481 3.40666 13.1081 3.51333L14.4415 5.81999C14.5215 5.96666 14.4881 6.14666 14.3615 6.24666L12.9548 7.34666C12.9815 7.56 13.0015 7.77333 13.0015 8ZM11.6681 7.99999C11.6681 7.85999 11.6615 7.71999 11.6348 7.51333L11.5415 6.75999L12.1348 6.29333L12.8481 5.72666L12.3815 4.91999L11.5348 5.25999L10.8281 5.54666L10.2215 5.07999C9.95481 4.87999 9.68815 4.72666 9.40148 4.60666L8.69481 4.31999L8.58815 3.56666L8.46148 2.66666H7.53481L7.40148 3.56666L7.29481 4.31999L6.58815 4.60666C6.31481 4.71999 6.04148 4.87999 5.75481 5.09333L5.15481 5.54666L4.46148 5.26666L3.61481 4.92666L3.14815 5.73333L3.86815 6.29333L4.46148 6.75999L4.36815 7.51333C4.34815 7.71333 4.33481 7.86666 4.33481 7.99999C4.33481 8.13333 4.34815 8.28666 4.36815 8.49333L4.46148 9.24666L3.86815 9.71333L3.14815 10.2733L3.61481 11.08L4.46148 10.74L5.16815 10.4533L5.77481 10.92C6.04148 11.12 6.30815 11.2733 6.59481 11.3933L7.30148 11.68L7.40815 12.4333L7.53481 13.3333H8.46815L8.60148 12.4333L8.70815 11.68L9.41481 11.3933C9.68815 11.28 9.96148 11.12 10.2481 10.9067L10.8481 10.4533L11.5415 10.7333L12.3881 11.0733L12.8548 10.2667L12.1348 9.70666L11.5415 9.23999L11.6348 8.48666C11.6548 8.28666 11.6681 8.13999 11.6681 7.99999ZM8.00148 5.33333C6.52815 5.33333 5.33481 6.52666 5.33481 8C5.33481 9.47333 6.52815 10.6667 8.00148 10.6667C9.47481 10.6667 10.6681 9.47333 10.6681 8C10.6681 6.52666 9.47481 5.33333 8.00148 5.33333ZM6.66815 7.99999C6.66815 8.73333 7.26815 9.33333 8.00148 9.33333C8.73481 9.33333 9.33481 8.73333 9.33481 7.99999C9.33481 7.26666 8.73481 6.66666 8.00148 6.66666C7.26815 6.66666 6.66815 7.26666 6.66815 7.99999Z" fill="#007079"/>
</svg>
